<svg width="439" height="136" viewBox="0 0 439 136" fill="none" xmlns="http://www.w3.org/2000/svg">
<path fill-rule="evenodd" clip-rule="evenodd" d="M66.2392 106.99C88.67 106.99 106.854 88.8064 106.854 66.3756C106.854 43.9447 88.67 25.761 66.2392 25.761C43.8084 25.761 25.6246 43.9447 25.6246 66.3756C25.6246 88.8064 43.8084 106.99 66.2392 106.99ZM66.2392 98.3257C83.5857 98.3257 97.6478 84.2636 97.6478 66.9171C97.6478 49.5706 83.5857 35.5085 66.2392 35.5085C48.8927 35.5085 34.8306 49.5706 34.8306 66.9171C34.8306 84.2636 48.8927 98.3257 66.2392 98.3257Z" fill="white"/>
<circle cx="66.2392" cy="62.0433" r="17.3289" fill="white"/>
<path d="M57.0332 75.5815C57.0332 74.9834 57.5181 74.4985 58.1163 74.4985H74.3621C74.9603 74.4985 75.4452 74.9834 75.4452 75.5815V78.8307C75.4452 79.4289 74.9603 79.9138 74.3621 79.9138H58.1163C57.5181 79.9138 57.0332 79.4289 57.0332 78.8307V75.5815Z" fill="white"/>
<rect x="57.0332" y="85.8705" width="18.412" height="4.87375" rx="1.08306" fill="white"/>
<path d="M148.17 79.7434C148.17 84.1623 146.949 87.4894 144.505 89.7248C142.114 91.9083 138.657 93 134.134 93H123.84V87.0735H134.914C136.837 87.0735 138.397 86.5017 139.592 85.358C140.788 84.2142 141.386 82.8366 141.386 81.225V73.1151C141.386 71.5555 140.97 70.3078 140.138 69.372C139.358 68.3843 138.163 67.8904 136.551 67.8904H134.992C131.145 67.8904 128.103 66.7727 125.868 64.5373C123.633 62.2499 122.515 58.9487 122.515 54.6338V51.6706C122.515 47.2517 123.71 43.9506 126.102 41.7671C128.545 39.5317 132.028 38.414 136.551 38.414H146.923V44.3405H135.771C133.848 44.3405 132.288 44.9123 131.093 46.056C129.897 47.1997 129.299 48.5774 129.299 50.189V56.1154C129.299 57.727 129.819 59.0787 130.859 60.1704C131.898 61.2101 133.25 61.73 134.914 61.73H136.473C140.164 61.73 143.024 62.7957 145.051 64.9272C147.13 67.0586 148.17 70.2818 148.17 74.5967V79.7434ZM185.48 80.5232C185.48 84.8901 184.388 88.0613 182.205 90.0368C180.073 92.0123 176.746 93 172.223 93H171.21C166.687 93 163.334 92.0123 161.15 90.0368C159.019 88.0613 157.953 84.8901 157.953 80.5232V66.4868C157.953 62.1199 159.019 58.9487 161.15 56.9732C163.334 54.9977 166.687 54.01 171.21 54.01H172.223C176.746 54.01 180.073 54.9977 182.205 56.9732C184.388 58.9487 185.48 62.1199 185.48 66.4868V80.5232ZM178.852 64.9272C178.852 63.3156 178.358 62.0679 177.37 61.1841C176.382 60.3004 174.927 59.8585 173.003 59.8585H170.43C168.506 59.8585 167.051 60.3004 166.063 61.1841C165.075 62.0679 164.581 63.3156 164.581 64.9272V82.0828C164.581 83.6944 165.075 84.9421 166.063 85.8258C167.051 86.7096 168.506 87.1515 170.43 87.1515H173.003C174.927 87.1515 176.382 86.7096 177.37 85.8258C178.358 84.9421 178.852 83.6944 178.852 82.0828V64.9272ZM203.428 93C201.661 93 200.101 92.3762 198.749 91.1285C197.45 89.8808 196.8 87.9053 196.8 85.202V38.414H203.428V84.8121C203.428 85.6439 203.636 86.2417 204.052 86.6056C204.468 86.9695 205.17 87.1515 206.158 87.1515H207.717V93H203.428ZM216.295 45.4322V38.414H223.703V45.4322H216.295ZM216.685 93V54.01H223.313V93H216.685ZM235.799 54.01H242.037V55.8815C243.649 54.6338 245.729 54.01 248.276 54.01H249.524C254.098 54.01 257.452 54.9977 259.583 56.9732C261.714 58.8967 262.78 62.0679 262.78 66.4868V80.5232C262.78 84.8901 261.688 88.0613 259.505 90.0368C257.374 92.0123 254.046 93 249.524 93H242.427V106.257H235.799V54.01ZM247.496 59.8585C245.781 59.8585 244.507 60.3264 243.675 61.2621C242.843 62.1459 242.427 63.1076 242.427 64.1474V87.1515H250.303C252.227 87.1515 253.683 86.7096 254.67 85.8258C255.658 84.9421 256.152 83.6944 256.152 82.0828V64.9272C256.152 63.3156 255.658 62.0679 254.67 61.1841C253.683 60.3004 252.227 59.8585 250.303 59.8585H247.496ZM295.071 83.2525C295.071 86.5277 294.057 88.971 292.03 90.5826C290.055 92.1942 287.169 93 283.374 93H273.315V87.1515H284.154C285.558 87.1515 286.623 86.8656 287.351 86.2937C288.079 85.6699 288.443 84.7861 288.443 83.6424V79.5095C288.443 77.1701 287.325 76.0004 285.09 76.0004H283.764C280.125 76.0004 277.396 75.2205 275.576 73.6609C273.809 72.0494 272.925 69.528 272.925 66.0969V63.8355C272.925 60.3524 273.913 57.857 275.888 56.3494C277.864 54.7898 280.775 54.01 284.622 54.01H293.512V59.8585H283.842C282.542 59.8585 281.503 60.1704 280.723 60.7942C279.943 61.3661 279.553 62.2239 279.553 63.3676V66.1749C279.553 67.3706 279.891 68.2543 280.567 68.8262C281.295 69.398 282.205 69.684 283.296 69.684H284.388C287.871 69.684 290.522 70.5417 292.342 72.2573C294.161 73.9209 295.071 76.4162 295.071 79.7434V83.2525ZM305.241 45.4322V38.414H312.649V45.4322H305.241ZM305.631 93V54.01H312.259V93H305.631ZM345.332 83.2525C345.332 86.5277 344.318 88.971 342.291 90.5826C340.315 92.1942 337.43 93 333.635 93H323.575V87.1515H334.415C335.818 87.1515 336.884 86.8656 337.612 86.2937C338.34 85.6699 338.703 84.7861 338.703 83.6424V79.5095C338.703 77.1701 337.586 76.0004 335.35 76.0004H334.025C330.386 76.0004 327.656 75.2205 325.837 73.6609C324.069 72.0494 323.185 69.528 323.185 66.0969V63.8355C323.185 60.3524 324.173 57.857 326.149 56.3494C328.124 54.7898 331.035 54.01 334.882 54.01H343.772V59.8585H334.103C332.803 59.8585 331.763 60.1704 330.983 60.7942C330.204 61.3661 329.814 62.2239 329.814 63.3676V66.1749C329.814 67.3706 330.152 68.2543 330.828 68.8262C331.555 69.398 332.465 69.684 333.557 69.684H334.649C338.132 69.684 340.783 70.5417 342.603 72.2573C344.422 73.9209 345.332 76.4162 345.332 79.7434V83.2525ZM379.753 93L376.79 79.1975H361.584L358.543 93H351.602L364.781 38.414H373.749L386.694 93H379.753ZM369.148 43.5607L362.832 73.349H375.542L369.148 43.5607ZM392.152 93V87.3075H397.611V44.1065H392.152V38.414H409.854V44.1065H404.395V87.3075H409.854V93H392.152Z" fill="white"/>
</svg>
